<?xml version="1.0" encoding="UTF-8" standalone="no"?>
<!-- Created with Inkscape (http://www.inkscape.org/) -->

<svg
   width="210mm"
   height="297mm"
   viewBox="0 0 210 297"
   version="1.1"
   id="svg1"
   inkscape:version="1.3.2 (091e20ef0f, 2023-11-25)"
   sodipodi:docname="icon.svg"
   xmlns:inkscape="http://www.inkscape.org/namespaces/inkscape"
   xmlns:sodipodi="http://sodipodi.sourceforge.net/DTD/sodipodi-0.dtd"
   xmlns="http://www.w3.org/2000/svg"
   xmlns:svg="http://www.w3.org/2000/svg">
  <sodipodi:namedview
     id="namedview1"
     pagecolor="#ffffff"
     bordercolor="#000000"
     borderopacity="0.25"
     inkscape:showpageshadow="2"
     inkscape:pageopacity="0.0"
     inkscape:pagecheckerboard="0"
     inkscape:deskcolor="#d1d1d1"
     inkscape:document-units="mm"
     showgrid="false"
     inkscape:zoom="0.91922636"
     inkscape:cx="348.11882"
     inkscape:cy="346.48702"
     inkscape:window-width="1920"
     inkscape:window-height="1131"
     inkscape:window-x="0"
     inkscape:window-y="0"
     inkscape:window-maximized="1"
     inkscape:current-layer="layer1">
    <inkscape:grid
       id="grid3"
       units="mm"
       originx="0"
       originy="0"
       spacingx="0.99999998"
       spacingy="1"
       empcolor="#0099e5"
       empopacity="0.30196078"
       color="#0099e5"
       opacity="0.14901961"
       empspacing="5"
       dotted="false"
       gridanglex="30"
       gridanglez="30"
       visible="false" />
  </sodipodi:namedview>
  <defs
     id="defs1">
    <inkscape:path-effect
       effect="fillet_chamfer"
       id="path-effect3"
       is_visible="true"
       lpeversion="1"
       nodesatellites_param="F,0,0,1,0,30,0,1 @ F,0,0,1,0,30,0,1 @ F,0,0,1,0,30,0,1 @ F,0,0,1,0,30,0,1"
       radius="0"
       unit="px"
       method="auto"
       mode="F"
       chamfer_steps="1"
       flexible="false"
       use_knot_distance="true"
       apply_no_radius="true"
       apply_with_radius="true"
       only_selected="false"
       hide_knots="false" />
  </defs>
  <g
     inkscape:label="Layer 1"
     inkscape:groupmode="layer"
     id="layer1">
    <path
       style="fill:none;stroke:#000000;stroke-width:2;stroke-dasharray:none"
       id="rect1"
       width="117.16161"
       height="117.16161"
       x="36.894512"
       y="70.388397"
       inkscape:path-effect="#path-effect3"
       sodipodi:type="rect"
       d="m 66.894512,70.388397 h 57.161618 a 30,30 45 0 1 30,30.000003 v 57.16161 a 30,30 135 0 1 -30,30 H 66.894512 a 30,30 45 0 1 -30,-30 V 100.3884 a 30,30 135 0 1 30,-30.000003 z"
       transform="matrix(1.007035,0,0,1.0070964,3.853014,-29.880847)" />
    <path
       sodipodi:type="spiral"
       style="fill:none;fill-rule:evenodd;stroke:#000000;stroke-width:2;stroke-dasharray:none"
       id="path5"
       sodipodi:cx="98.703087"
       sodipodi:cy="97.304161"
       sodipodi:expansion="1"
       sodipodi:revolution="3"
       sodipodi:radius="61.030247"
       sodipodi:argument="-17.299215"
       sodipodi:t0="0"
       d="m 98.703087,97.304161 c 0.06259,3.059319 -4.093022,1.593729 -5.08479,0.104028 -2.68763,-4.037 0.962814,-8.939004 4.876735,-10.273608 7.001088,-2.387293 13.899008,3.167087 15.462428,9.857497 2.29437,9.818442 -5.37988,18.946842 -14.838263,20.651242 -12.606541,2.2717 -24.02853,-7.59288 -25.84006,-19.819021 C 70.999513,82.438945 83.084442,68.69728 98.078922,66.795422 116.23925,64.492017 132.31402,78.812688 134.29662,96.575968 136.63303,117.50938 120.0677,135.92515 99.535307,137.98248 75.829848,140.35775 55.068036,121.54212 52.939978,98.240409 50.521943,71.763525 71.591643,48.652243 97.662811,46.456262 126.91072,43.992703 152.37391,67.319136 154.63578,96.159858 157.14687,128.17853 131.56176,155.99543 99.951418,158.32164"
       transform="translate(-2.9564683,0.67718986)" />
    <path
       sodipodi:type="spiral"
       style="fill:none;fill-rule:evenodd;stroke:#000000;stroke-width:2;stroke-dasharray:none"
       id="path5-5"
       sodipodi:cx="98.703087"
       sodipodi:cy="97.304161"
       sodipodi:expansion="1"
       sodipodi:revolution="3"
       sodipodi:radius="61.030247"
       sodipodi:argument="-17.299215"
       sodipodi:t0="0"
       d="m 98.703087,97.304161 c 0.06259,3.059319 -4.093022,1.593729 -5.08479,0.104028 -2.68763,-4.037 0.962814,-8.939004 4.876735,-10.273608 7.001088,-2.387293 13.899008,3.167087 15.462428,9.857497 2.29437,9.818442 -5.37988,18.946842 -14.838263,20.651242 -12.606541,2.2717 -24.02853,-7.59288 -25.84006,-19.819021 C 70.999513,82.438945 83.084442,68.69728 98.078922,66.795422 116.23925,64.492017 132.31402,78.812688 134.29662,96.575968 136.63303,117.50938 120.0677,135.92515 99.535307,137.98248 75.829848,140.35775 55.068036,121.54212 52.939978,98.240409 50.521943,71.763525 71.591643,48.652243 97.662811,46.456262 126.91072,43.992703 152.37391,67.319136 154.63578,96.159858 157.14687,128.17853 131.56176,155.99543 99.951418,158.32164"
       transform="rotate(180,99.905933,99.604527)" />
    <rect
       style="fill:none;stroke:#000000;stroke-width:1.27527;stroke-dasharray:none"
       id="rect6"
       width="3.672586"
       height="0.19716153"
       x="130.06131"
       y="31.851507"
       transform="matrix(0.84424122,0.5359634,-0.40108988,0.9160387,0,0)" />
    <path
       style="fill:#00ffff;stroke:#000000;stroke-width:5.17657;stroke-dasharray:none"
       d="m 422.78891,593.71644 c 24.73482,-8.48773 47.6455,-20.95926 69.25172,-37.69748 9.81506,-7.60367 29.29775,-26.93688 37.21358,-36.92808 26.55994,-33.52338 42.50457,-71.42507 47.41577,-112.7112 1.45585,-12.2387 1.45858,-35.66653 0.006,-47.81938 -5.56499,-46.54492 -25.68757,-88.9165 -58.14685,-122.43826 -32.26321,-33.31929 -71.48496,-53.73243 -116.88385,-60.83276 -9.57126,-1.49693 -34.94702,-2.09258 -45.56392,-1.06953 -50.9346,4.90811 -96.81027,29.2898 -129.8875,69.03175 -45.49783,54.66514 -54.90302,129.17458 -24.13371,191.19105 24.99178,50.37166 71.16919,84.5426 125.62496,92.96155 10.80458,1.6704 32.9178,1.67968 43.82825,0.0184 38.06674,-5.79628 71.86606,-24.74586 96.31303,-53.99789 43.12511,-51.60133 44.49636,-125.47239 3.26595,-175.94089 -4.35187,-5.32696 -14.79229,-15.68272 -20.17268,-20.00913 -15.0234,-12.08041 -33.82987,-20.94983 -53.55364,-25.25675 -6.15831,-1.34474 -8.99602,-1.53294 -23.11339,-1.53294 -14.18058,0 -16.94776,0.18522 -23.28376,1.55855 -23.39099,5.06999 -43.11118,15.83739 -59.35555,32.40864 -14.8835,15.18301 -24.65687,33.32906 -29.07857,53.98966 -2.18064,10.18915 -2.18995,28.66288 -0.0196,38.82116 8.18545,38.31111 37.38991,67.59714 73.73012,73.93604 9.163,1.59832 24.47058,0.95941 33.55601,-1.40057 8.06899,-2.09595 19.90849,-7.78491 26.40041,-12.68556 13.1057,-9.89329 22.96113,-24.16833 26.989,-39.09204 1.60273,-5.93831 2.16882,-20.04771 1.05452,-26.28296 -7.26697,-40.6635 -52.68875,-60.57021 -78.92633,-34.59053 -11.38404,11.27213 -13.45576,27.41616 -4.75424,37.04771 3.46768,3.8383 8.40292,6.16087 13.82827,6.50769 4.51082,0.28837 4.92012,0.1484 9.59584,-3.28154 0.82194,-0.60294 2.44952,0.13693 7.88732,3.58541 6.6094,4.19147 6.98823,4.33695 10.71318,4.11426 3.11469,-0.18621 3.92774,-0.48421 4.20406,-1.54084 0.41863,-1.60086 2.36022,-1.68335 5.80011,-0.24642 3.84899,1.60781 6.24091,4.30012 7.41818,8.34979 1.84329,6.34068 -0.49661,13.19064 -6.77267,19.82664 -10.29501,10.88546 -25.67025,12.83686 -40.55806,5.14756 -5.72515,-2.95694 -15.2377,-12.1418 -18.70973,-18.06522 -4.16518,-7.10596 -6.9535,-17.37302 -6.96572,-25.64885 -0.0136,-9.243 3.46101,-20.88705 9.01351,-30.20558 3.47034,-5.82414 12.97712,-15.44717 19.70913,-19.95013 10.77277,-7.20579 21.96416,-10.89022 35.04679,-11.53811 21.08385,-1.04414 40.64097,6.60259 56.86121,22.2324 14.31331,13.79232 23.08105,30.27806 26.28108,49.41565 1.42146,8.50096 1.06754,24.79303 -0.71532,32.9283 -6.09573,27.81511 -24.68437,52.43259 -50.96587,67.49561 -17.77086,10.18522 -40.83168,15.21419 -61.03112,13.30931 -10.29579,-0.97092 -16.38507,-2.25246 -26.22856,-5.52001 -38.70154,-12.847 -69.46616,-46.1887 -79.87776,-86.56893 -11.88319,-46.08761 2.44311,-94.02738 38.48624,-128.78568 15.90154,-15.33469 32.94057,-25.96902 52.59036,-32.82248 17.0269,-5.93865 29.9714,-8.10859 48.27956,-8.09332 14.76988,0.0123 23.01857,1.04921 36.98009,4.64851 33.81037,8.71636 64.48004,29.42427 86.54686,58.4357 43.28689,56.90967 44.92434,133.3448 4.15833,194.1083 -29.00621,43.23499 -75.04684,72.262 -126.7514,79.91232 -8.84249,1.30836 -24.75158,1.88847 -35.58098,1.29743 -68.29648,-3.72743 -131.3114,-45.87823 -163.53837,-109.39114 -10.57167,-20.83465 -16.82309,-40.72493 -20.36746,-64.80362 -1.51069,-10.26289 -1.72834,-38.79947 -0.37867,-49.6492 4.33373,-34.83795 17.57345,-68.84257 37.95956,-97.4945 31.87342,-44.79694 79.46579,-76.59178 132.70645,-88.65666 19.33282,-4.38102 18.33008,-4.3358 90.0394,-4.06075 64.5028,0.24741 65.11595,0.26266 71.90572,1.78856 15.37459,3.45522 30.17547,9.85328 41.92634,18.12373 3.30595,2.32678 9.72486,7.92877 14.26426,12.44887 14.34777,14.28677 23.86324,30.65552 28.74663,49.45066 3.80376,14.63988 3.7465,12.5586 3.7465,136.19722 0,75.16703 -0.24569,116.27964 -0.72109,120.66383 -4.70036,43.34659 -33.89158,79.4815 -75.29353,93.20354 -15.19427,5.03591 -15.39471,5.05271 -63.68793,5.33875 l -43.48585,0.25756 z"
       id="path6"
       transform="scale(0.26458333)" />
    <path
       style="fill:#ac9393;stroke:#000000;stroke-width:5.17657;stroke-dasharray:none"
       d="m 258.86062,596.35627 c -10.49516,-1.02172 -23.51329,-4.44891 -33.35996,-8.78241 -33.37911,-14.69012 -56.28284,-43.08376 -64.35651,-79.78245 l -1.58191,-7.19058 V 378.01869 255.43654 l 1.57958,-7.19057 c 4.69623,-21.37815 14.07316,-39.57547 27.78416,-53.91929 16.80378,-17.57934 34.99479,-27.79663 58.97758,-33.12576 6.52377,-1.44962 8.58366,-1.53217 43.48584,-1.74265 l 36.63768,-0.22095 -8.21779,2.96143 c -9.94244,3.58292 -19.78347,7.7511 -27.7679,11.76112 -47.87388,24.0437 -87.23125,65.22891 -107.83239,112.84035 -32.0654,74.10654 -21.29157,156.00292 28.75825,218.60348 7.11779,8.90268 22.76357,24.52291 31.85463,31.80263 33.63407,26.93264 74.27463,42.62844 115.04917,44.43316 55.95078,2.47644 105.72433,-16.57325 145.09584,-55.53211 29.63301,-29.32243 47.33072,-64.42228 53.60506,-106.31489 1.41577,-9.45284 1.20802,-37.71111 -0.3474,-47.25234 -4.27686,-26.23507 -13.19711,-49.41111 -27.01693,-70.19368 -27.19269,-40.89302 -68.74585,-67.62294 -115.62496,-74.37812 -9.86958,-1.42219 -30.57559,-1.5979 -39.96083,-0.33911 -30.92918,4.14836 -58.49399,16.45746 -81.86367,36.55633 -40.55206,34.87639 -58.93182,87.94587 -47.81629,138.0641 13.94754,62.88733 71.75622,107.70225 132.59136,102.78857 11.19344,-0.9041 18.05832,-2.2174 27.13798,-5.19168 38.76676,-12.69904 67.60015,-44.28817 75.88325,-83.13574 1.76627,-8.28376 1.76054,-30.79867 -0.01,-38.87579 -8.414,-38.38674 -37.5104,-67.48081 -73.7039,-73.69799 -39.17989,-6.73017 -77.02287,16.53288 -87.15966,53.57929 -2.06279,7.53877 -2.0461,22.8045 0.0334,30.5746 4.22234,15.77669 15.64723,30.03871 29.389,36.68712 12.64118,6.11593 27.54618,6.22503 39.2744,0.28748 6.78656,-3.43578 13.97919,-10.99292 17.0327,-17.8959 3.57971,-8.09252 3.2491,-16.72578 -0.90683,-23.68056 -4.91071,-8.21787 -17.59485,-12.01838 -23.94529,-7.17467 l -2.33893,1.784 -6.42135,-4.05654 c -6.01246,-3.79823 -6.68879,-4.05787 -10.62158,-4.07755 -3.63387,-0.0182 -4.24852,0.16367 -4.5584,1.34862 -0.46129,1.764 -3.25632,1.79216 -7.04597,0.071 -9.80061,-4.45121 -9.42249,-18.41193 0.77167,-28.49087 12.50094,-12.35965 31.42431,-12.17495 47.35636,0.46221 7.89976,6.26602 14.87215,17.69815 17.05123,27.95767 1.50829,7.10133 0.98671,19.76935 -1.08555,26.36543 -5.77844,18.39298 -20.94675,34.34608 -39.53443,41.57993 -26.31462,10.24098 -56.47129,3.56574 -78.62394,-17.40358 -43.57565,-41.248 -34.17076,-111.82189 19.53526,-146.59151 17.97474,-11.63697 36.20099,-16.93205 58.31255,-16.94095 57.57072,-0.0232 108.0379,45.33164 117.34484,105.4577 1.61137,10.41002 1.49104,27.56523 -0.26924,38.38463 -10.23656,62.91806 -63.72365,111.57427 -129.50545,117.80869 -31.90676,3.02394 -67.20816,-6.24057 -95.5319,-25.0714 -10.19307,-6.7768 -15.69996,-11.27996 -24.90968,-20.36946 -26.90061,-26.54945 -43.22865,-59.71614 -48.11809,-97.74095 -1.06534,-8.28507 -1.05999,-29.204 0.01,-37.6649 3.87664,-30.66484 15.46737,-59.19923 34.21539,-84.23243 7.27781,-9.71765 22.03461,-24.96037 31.59456,-32.6349 25.42381,-20.40971 53.82549,-33.12295 86.30448,-38.63188 10.84303,-1.83914 34.68785,-2.55645 45.91249,-1.38117 54.71275,5.72876 103.63051,33.72916 137.46691,78.68572 19.90703,26.4494 33.42906,58.04833 38.44343,89.83654 2.66311,16.88257 3.00532,39.89116 0.8403,56.49735 -9.2806,71.18431 -54.18959,133.50725 -119.9261,166.4288 -20.1574,10.09505 -38.90613,16.28793 -62.61397,20.68196 l -9.64872,1.78831 -57.18218,0.12904 c -31.45019,0.071 -58.41484,0.009 -59.92144,-0.13763 z"
       id="path7"
       transform="scale(0.26458333)" />
  </g>
</svg>
